<?xml version="1.0" standalone="no"?>
<!DOCTYPE svg PUBLIC "-//W3C//DTD SVG 20010904//EN"
 "http://www.w3.org/TR/2001/REC-SVG-20010904/DTD/svg10.dtd">
<svg version="1.0" xmlns="http://www.w3.org/2000/svg"
 width="600.000000pt" height="600.000000pt" viewBox="0 0 300.000000 300.000000"
 preserveAspectRatio="xMidYMid meet">

<g transform="translate(0.000000,300.000000) scale(0.100000,-0.100000)"
fill="#000000" stroke="none">
<path d="M1340 2285 c-304 -68 -544 -296 -621 -591 -28 -110 -28 -279 0 -389
59 -224 202 -401 411 -509 137 -71 220 -91 380 -90 126 0 141 2 232 33 418
143 647 546 543 955 -69 272 -289 497 -567 577 -96 27 -286 35 -378 14z m351
-269 c221 -65 380 -280 380 -515 0 -99 -3 -114 -33 -196 -59 -162 -178 -275
-355 -336 -67 -23 -100 -29 -171 -29 -138 0 -228 28 -338 106 -156 110 -233
258 -235 450 -2 293 208 514 521 546 46 5 174 -10 231 -26z"/>
<path d="M1362 1945 c-17 -8 -32 -11 -32 -8 0 3 -8 -1 -18 -10 -10 -10 -21
-15 -24 -12 -11 12 -122 -76 -160 -126 -35 -47 -89 -139 -94 -161 -1 -5 -2 -9
-4 -10 -13 -16 -18 -238 -6 -256 5 -7 6 -15 3 -19 -4 -3 1 -12 11 -19 9 -7 17
-16 18 -21 3 -26 39 -87 72 -122 21 -23 37 -43 34 -46 -3 -3 0 -5 7 -5 7 0 9
-5 5 -12 -4 -6 -3 -8 3 -5 6 4 21 -1 34 -11 29 -22 101 -57 112 -54 4 1 7 -3
7 -8 0 -5 3 -9 8 -9 19 3 43 -2 39 -8 -3 -5 47 -7 111 -6 156 4 191 7 185 16
-2 4 3 7 11 7 40 0 138 70 201 143 50 58 55 66 55 77 0 6 7 22 16 35 9 14 13
25 9 25 -4 0 -3 6 3 13 6 7 11 22 11 32 0 65 13 160 22 166 8 5 8 8 0 10 -6 2
-12 21 -13 41 -2 21 -6 38 -10 38 -5 0 -8 9 -8 20 0 11 -12 39 -27 63 -15 23
-26 45 -25 48 2 10 -77 90 -113 115 -33 23 -91 53 -145 76 -47 20 -252 22
-298 3z m253 -20 c122 -31 217 -98 271 -191 136 -231 49 -527 -187 -641 -138
-66 -270 -64 -409 7 -56 29 -145 113 -177 168 -129 219 -51 506 167 617 107
54 225 68 335 40z"/>
<path d="M1376 1851 c-186 -61 -289 -228 -256 -413 50 -278 364 -406 609 -248
196 127 225 414 56 569 -25 23 -76 57 -113 74 -87 41 -205 48 -296 18z m226
-141 c24 -11 51 -20 60 -20 28 0 51 -45 44 -84 -4 -19 -2 -37 3 -40 18 -11 22
-80 8 -127 -8 -25 -12 -59 -10 -76 6 -37 -25 -63 -74 -63 -18 0 -33 -4 -33
-10 0 -17 -58 -40 -100 -40 -40 0 -100 25 -100 42 0 4 -13 8 -29 8 -63 0 -84
25 -71 83 5 24 4 39 -2 43 -13 9 0 234 14 252 6 6 24 12 40 12 16 0 43 7 61
17 72 37 112 38 189 3z"/>
<path d="M1322 1668 c-16 -16 -15 -68 1 -68 7 0 23 18 36 40 l22 40 -23 0
c-13 0 -29 -5 -36 -12z"/>
<path d="M1655 1651 c20 -40 35 -48 35 -19 0 27 -17 48 -37 48 -11 0 -10 -6 2
-29z"/>
<path d="M1312 1353 c2 -17 10 -29 21 -31 23 -5 22 13 -4 39 l-20 20 3 -28z"/>
<path d="M1653 1338 c-1 -12 5 -18 18 -18 12 0 19 7 19 19 0 25 -36 24 -37 -1z"/>
<path d="M2035 2140 c10 -11 20 -20 23 -20 3 0 -3 9 -13 20 -10 11 -20 20 -23
20 -3 0 3 -9 13 -20z"/>
<path d="M899 2083 c-36 -38 -75 -84 -88 -103 l-22 -35 28 35 c15 19 57 65 92
103 35 37 62 67 59 67 -2 0 -34 -30 -69 -67z"/>
<path d="M2128 2055 c78 -95 122 -168 158 -262 18 -49 33 -81 34 -73 0 30 -67
176 -107 235 -23 33 -62 83 -88 110 l-47 50 50 -60z"/>
<path d="M770 1920 c-6 -11 -8 -20 -6 -20 3 0 10 9 16 20 6 11 8 20 6 20 -3 0
-10 -9 -16 -20z"/>
<path d="M735 1859 c-4 -6 -5 -12 -2 -15 2 -3 7 2 10 11 7 17 1 20 -8 4z"/>
<path d="M716 1815 c-9 -26 -7 -32 5 -12 6 10 9 21 6 23 -2 3 -7 -2 -11 -11z"/>
<path d="M696 1765 c-3 -9 -6 -22 -5 -28 0 -7 5 -1 10 12 5 13 8 26 5 28 -2 2
-6 -3 -10 -12z"/>
<path d="M676 1684 c-4 -20 -5 -38 -3 -40 3 -3 8 11 11 32 4 20 5 38 3 40 -3
3 -8 -11 -11 -32z"/>
<path d="M2327 1655 c3 -27 7 -52 9 -54 7 -8 2 54 -6 79 -6 17 -7 9 -3 -25z"/>
<path d="M663 1585 c0 -27 2 -38 4 -22 2 15 2 37 0 50 -2 12 -4 0 -4 -28z"/>
<path d="M661 1424 c-2 -61 42 -220 83 -301 77 -154 217 -290 381 -371 77 -38
178 -73 207 -71 7 0 -16 9 -52 19 -36 11 -105 40 -155 65 -252 127 -412 354
-454 643 -8 53 -9 54 -10 16z"/>
<path d="M2317 1324 c-34 -153 -91 -261 -200 -380 -84 -91 -211 -177 -326
-221 -47 -18 -79 -32 -71 -33 32 0 179 68 250 115 131 87 224 192 294 332 38
76 79 211 74 245 -2 11 -11 -15 -21 -58z"/>
<path d="M1635 680 c-27 -7 -27 -8 -5 -8 14 0 36 4 50 8 20 6 21 8 5 8 -11 0
-33 -4 -50 -8z"/>
<path d="M1363 673 c9 -2 23 -2 30 0 6 3 -1 5 -18 5 -16 0 -22 -2 -12 -5z"/>
<path d="M1453 663 c26 -2 68 -2 95 0 26 2 4 3 -48 3 -52 0 -74 -1 -47 -3z"/>
</g>
</svg>
